<svg version="1.1" id="Layer_1" xmlns="http://www.w3.org/2000/svg" xmlns:xlink="http://www.w3.org/1999/xlink" x="0px" y="0px"
	 width="100%" viewBox="0 0 1024 624" enable-background="new 0 0 1024 624" xml:space="preserve">
<path fill="#000000" opacity="1.000000" stroke="none" 
	d="
M680.969116,378.285217 
	C596.990967,378.154785 513.506897,378.055420 430.023010,377.875336 
	C405.032776,377.821411 380.043030,377.536041 355.052979,377.369293 
	C347.599213,377.319550 346.117523,375.882446 346.087891,368.233734 
	C345.929779,327.408630 345.868195,286.583069 345.629364,245.758469 
	C345.507568,224.935394 345.102905,204.113785 344.786102,183.292130 
	C344.689209,176.925705 345.769867,175.708847 352.264740,175.700607 
	C392.090485,175.650116 431.920135,175.974045 471.741180,175.524139 
	C560.884583,174.516983 650.030029,174.984131 739.174011,174.673721 
	C749.301270,174.638458 750.245422,175.612564 750.246216,185.820801 
	C750.249695,229.645828 750.198303,273.471008 750.335938,317.295593 
	C750.349121,321.501373 749.001770,324.554962 746.145996,327.464630 
	C731.323792,342.566681 716.515076,357.684875 701.929443,373.014160 
	C698.229980,376.902252 694.570068,379.441010 688.946960,378.382935 
	C686.531738,377.928497 683.962524,378.292938 680.969116,378.285217 
M532.500000,218.398941 
	C527.501831,218.393585 522.502441,218.316055 517.505676,218.397018 
	C504.813934,218.602692 506.783905,216.161407 502.011230,229.521561 
	C497.026855,243.474289 492.140594,257.462036 487.168610,271.419220 
	C486.320160,273.800934 485.326904,276.282745 482.161316,276.176178 
	C479.268066,276.078735 477.767487,274.117859 476.824219,271.622070 
	C476.470978,270.687469 476.147247,269.741669 475.809875,268.801086 
	C470.414368,253.757141 465.040253,238.705475 459.603149,223.676590 
	C458.644958,221.027985 457.765503,218.308929 453.978607,218.342377 
	C441.150940,218.455643 428.321747,218.383774 415.493561,218.457672 
	C412.202271,218.476639 410.298706,219.886414 410.301056,223.624893 
	C410.323364,258.945740 410.272644,294.266724 410.163666,329.587433 
	C410.153534,332.872040 411.539734,334.016541 414.660706,333.956696 
	C420.823212,333.838562 426.989075,333.902863 433.153473,333.871918 
	C439.880005,333.838135 439.894104,333.828308 439.872650,327.290192 
	C439.811462,308.630219 439.736359,289.970276 439.670074,271.310333 
	C439.658173,267.958679 439.219971,264.064758 443.721527,263.394073 
	C447.977417,262.759918 448.551422,266.471619 449.554810,269.495026 
	C456.211121,289.552246 462.958954,309.579193 469.553131,329.656708 
	C470.543610,332.672516 472.114990,333.951782 475.323792,333.795502 
	C479.811920,333.576965 484.325470,333.566071 488.813904,333.774078 
	C492.046478,333.923920 493.548767,332.544983 494.576965,329.587860 
	C499.880127,314.336243 505.349091,299.142242 510.772797,283.932617 
	C512.673889,278.601440 514.578491,273.270996 516.546814,267.964508 
	C517.367859,265.751160 518.852295,264.213257 521.441162,264.600861 
	C523.845886,264.960876 524.622192,266.880005 524.872375,268.944672 
	C525.111755,270.920410 525.143616,272.933258 525.114807,274.927582 
	C524.857605,292.746704 524.666321,310.567810 524.212280,328.382172 
	C524.105347,332.579132 525.547058,333.929626 529.651306,333.767029 
	C536.471802,333.496826 543.310303,333.691772 550.141235,333.672363 
	C556.659180,333.653839 556.734131,333.642914 556.680847,326.922821 
	C556.410034,292.774139 556.097351,258.625824 555.797302,224.477371 
	C555.791443,223.811127 555.717285,223.142822 555.750916,222.479324 
	C555.903381,219.466400 554.391174,218.328354 551.493103,218.367264 
	C545.496277,218.447769 539.497742,218.395493 532.500000,218.398941 
M648.329285,224.768738 
	C648.314270,235.596878 648.360474,246.425568 648.260620,257.252930 
	C648.203430,263.456085 646.311829,265.202393 640.052795,265.093811 
	C636.224915,265.027405 632.388428,264.934601 628.575867,264.615204 
	C620.054993,263.901459 619.379211,263.329376 619.144897,254.726669 
	C618.877380,244.904205 618.986938,235.071472 618.933289,225.243195 
	C618.897156,218.616760 618.705078,218.394104 612.291626,218.371368 
	C605.295044,218.346558 598.279297,218.685333 591.308167,218.265228 
	C586.459412,217.973022 585.191833,220.039307 585.348450,224.314041 
	C585.641052,232.300186 585.872864,240.291840 585.931580,248.282669 
	C586.124878,274.602600 586.295471,300.923126 586.301575,327.243530 
	C586.302612,331.511292 587.718079,333.306030 592.080200,333.168335 
	C598.903809,332.952972 605.742188,332.950531 612.567078,333.131317 
	C616.664490,333.239868 618.202271,331.665710 618.062622,327.545135 
	C617.752380,318.390442 617.716736,309.224976 617.667419,300.063385 
	C617.635376,294.101776 618.952332,292.793854 625.032227,292.707245 
	C631.194702,292.619415 637.360413,292.617889 643.522827,292.704468 
	C648.853760,292.779327 650.161560,294.208496 650.321960,299.661682 
	C650.600952,309.147644 650.983032,318.631989 651.123474,328.119934 
	C651.172607,331.435547 652.261414,333.008911 655.765198,332.955902 
	C664.259216,332.827393 672.757996,332.794434 681.251343,332.933990 
	C685.071350,332.996735 686.071777,331.185577 686.053955,327.729340 
	C685.874023,292.913208 685.744690,258.096710 685.705566,223.280182 
	C685.701477,219.624008 684.382263,218.259964 680.709534,218.328415 
	C671.716980,218.496017 662.714661,218.543945 653.725464,218.300293 
	C649.513062,218.186111 647.875671,219.803757 648.329285,224.768738 
z"/>
<path fill="#000000" opacity="1.000000" stroke="none" 
	d="
M445.090942,441.010284 
	C445.162811,446.667908 444.900635,451.862305 445.415344,456.978546 
	C445.916718,461.962524 445.692291,467.334076 450.601257,470.921753 
	C452.636230,472.408997 452.927246,474.962921 451.370514,477.219513 
	C449.823120,479.462585 447.630066,480.548248 444.885193,479.827545 
	C440.998230,478.806976 438.854218,475.927490 437.296539,472.446503 
	C435.598663,468.652283 435.291595,464.490021 434.245697,460.460693 
	C419.898224,469.412415 413.589508,466.484161 404.511688,446.150604 
	C403.362488,451.774475 402.426971,456.656036 401.348877,461.505951 
	C400.773254,464.095398 400.089111,466.678650 399.207550,469.177856 
	C397.984528,472.645203 395.679962,475.097687 391.706512,474.142822 
	C387.689636,473.177490 386.978394,469.944427 387.412903,466.286346 
	C388.768188,454.876892 391.320526,443.702911 394.014526,432.555817 
	C396.522430,422.178589 398.020264,411.685455 397.817993,400.973877 
	C397.777618,398.836182 397.870941,396.601227 398.450928,394.567444 
	C399.481720,390.952545 402.104340,389.573059 405.795868,390.522400 
	C409.441589,391.459869 411.899994,393.493134 411.153900,397.614716 
	C408.571716,411.879547 410.791626,425.765869 414.398224,439.521118 
	C415.234680,442.711334 416.611328,445.792358 418.029114,448.786438 
	C418.993744,450.823486 419.880096,453.504791 422.604004,453.584106 
	C425.549194,453.669891 426.808167,451.055267 427.761444,448.784943 
	C431.513458,439.849030 434.402893,430.655426 434.648529,420.860931 
	C434.815857,414.189697 435.479156,407.582550 436.803558,401.055634 
	C437.540222,397.425323 439.068115,394.048767 443.582062,394.595245 
	C448.322693,395.169098 449.131805,399.048798 448.905975,402.851746 
	C448.571411,408.486755 448.085083,414.162750 446.998260,419.690491 
	C445.640259,426.597443 445.036438,433.508636 445.090942,441.010284 
z"/>
<path fill="#000000" opacity="1.000000" stroke="none" 
	d="
M460.790344,462.204163 
	C462.034607,453.166626 463.057281,444.580963 462.638580,435.902618 
	C462.406097,431.083649 461.336578,427.263062 456.016388,424.860077 
	C447.654877,421.083405 447.506866,414.672150 455.033966,409.535736 
	C461.487244,405.132111 467.460754,400.021545 474.502991,396.482086 
	C484.887512,391.262695 491.490692,395.290741 491.462769,406.883026 
	C491.442505,415.290314 489.512787,423.360291 487.118958,431.339691 
	C486.521729,433.330475 485.721924,435.191772 488.339905,436.370850 
	C494.477448,439.135101 497.773682,444.600006 501.093658,449.995667 
	C504.578949,455.659973 507.688232,461.553711 512.092957,466.625916 
	C514.339661,469.213104 514.615479,472.163025 511.916260,474.623291 
	C509.126282,477.166229 506.348297,476.104584 503.926910,473.840637 
	C499.105133,469.332367 496.261932,463.423157 492.805695,457.945862 
	C490.855988,454.856079 488.881958,451.770416 486.717560,448.831116 
	C485.099030,446.633087 482.783325,445.922791 480.792175,448.173889 
	C478.263733,451.032349 472.512054,450.353333 472.658997,456.287079 
	C472.756470,460.223328 471.890839,464.066406 473.199829,468.078247 
	C474.633850,472.473175 471.204956,477.583191 467.214417,477.962341 
	C463.655426,478.300537 460.814362,475.003937 460.649719,470.161285 
	C460.565002,467.669708 460.718323,465.170044 460.790344,462.204163 
M472.797089,426.826569 
	C473.153076,429.047546 473.509064,431.268494 473.979675,434.204590 
	C477.608063,424.973328 480.246124,416.313110 480.066284,406.279633 
	C473.840332,409.901367 468.306976,413.097595 463.347961,418.821350 
	C468.677734,419.779388 471.673828,421.813141 472.797089,426.826569 
z"/>
<path fill="#000000" opacity="1.000000" stroke="none" 
	d="
M602.788635,469.928894 
	C599.007874,471.370789 595.616638,472.771759 592.138977,473.908081 
	C586.232788,475.837860 584.520264,478.563965 585.715454,484.924011 
	C585.994019,486.406464 586.498413,487.856201 586.059204,489.338745 
	C585.187927,492.279846 583.403198,494.491638 580.180054,494.659729 
	C576.766907,494.837738 575.180542,492.473206 574.355591,489.520264 
	C573.051086,484.850372 574.513794,480.221100 574.929993,475.642426 
	C576.427124,459.172455 576.176270,442.712921 575.475769,426.237610 
	C575.358887,423.487274 575.224426,420.807678 577.953491,419.157379 
	C581.682861,416.902100 585.489502,419.260132 586.345215,424.364380 
	C588.065369,434.624969 587.143860,444.975067 587.287537,455.286499 
	C587.393066,462.857849 588.292725,463.553558 595.422424,460.824738 
	C600.086365,459.039581 604.621216,456.756714 609.428528,455.556580 
	C613.312073,454.587036 614.142334,452.598053 613.709717,449.190369 
	C612.872131,442.592682 612.203308,435.971344 611.244202,429.391907 
	C610.146545,421.862122 611.274353,418.359406 615.349426,417.753448 
	C619.579529,417.124420 621.400757,420.131226 622.372009,427.722290 
	C623.765198,438.611969 625.339966,449.456238 625.370483,460.481171 
	C625.386292,466.172455 624.683472,471.768951 624.115295,477.390930 
	C623.740479,481.099335 622.044800,484.102081 617.848755,483.552155 
	C613.788330,483.020020 612.628723,479.700958 612.977478,476.054260 
	C613.275818,472.934296 614.140869,469.863617 613.398132,466.428619 
	C609.554504,466.402863 606.547546,468.755432 602.788635,469.928894 
z"/>
<path fill="#000000" opacity="1.000000" stroke="none" 
	d="
M662.632080,475.612213 
	C659.421204,478.562958 656.459839,481.259827 652.582458,482.625458 
	C645.828735,485.004150 640.904053,481.654541 640.651550,474.552460 
	C640.538086,471.361633 640.986389,468.243225 641.669800,465.147491 
	C642.600708,460.930725 643.671692,457.150574 639.197021,453.571045 
	C636.178772,451.156555 638.199402,447.833832 641.130676,445.691315 
	C647.746033,440.855988 648.561279,437.300201 644.679626,430.510590 
	C641.428467,424.823975 644.269043,418.576172 650.580750,416.605469 
	C659.782654,413.732422 668.627014,409.669800 678.281494,408.334900 
	C680.577271,408.017456 682.927185,407.756378 685.228027,407.888885 
	C688.675659,408.087433 691.630798,409.518616 691.657288,413.462585 
	C691.683838,417.405731 688.794739,419.040497 685.310669,419.057495 
	C678.342773,419.091461 671.850220,421.080597 665.379211,423.281372 
	C657.922119,425.817444 657.764832,426.115051 658.786987,434.494690 
	C659.977661,435.224701 661.002197,434.304962 662.105652,434.158600 
	C664.474731,433.844330 666.453125,434.574341 667.628357,436.694641 
	C668.887146,438.965546 668.527466,441.196655 666.872253,443.182404 
	C666.450928,443.687927 665.968506,444.292725 665.389526,444.494507 
	C653.675354,448.577271 653.947388,458.899323 652.628906,469.289734 
	C656.700012,466.405304 658.513367,462.801147 659.554138,458.816437 
	C660.413269,455.527374 662.367920,453.754333 665.615723,454.278503 
	C669.138428,454.847046 670.542236,457.538971 670.234192,460.927795 
	C669.711426,466.681152 666.572021,471.175110 662.632080,475.612213 
z"/>
<path fill="#000000" opacity="1.000000" stroke="none" 
	d="
M528.708862,473.705658 
	C525.551270,472.001892 524.180054,469.683899 524.974426,466.546417 
	C525.818787,463.211578 527.809509,460.863983 531.592163,461.083496 
	C534.359314,461.244110 538.066650,466.087402 537.724854,469.172150 
	C537.329712,472.737976 534.889404,474.186432 531.515198,474.253265 
	C530.705627,474.269318 529.890808,474.014618 528.708862,473.705658 
z"/>
</svg>