<svg version="1.1" id="Layer_1" xmlns="http://www.w3.org/2000/svg" xmlns:xlink="http://www.w3.org/1999/xlink" x="0px" y="0px"
	 width="100%" viewBox="0 0 416 384" enable-background="new 0 0 416 384" xml:space="preserve">
<path fill="#000000" opacity="1.000000" stroke="none" 
	d="
M361.973419,225.155273 
	C355.249664,259.384369 339.325134,288.010376 313.228638,310.645111 
	C286.327423,333.977875 254.991425,346.422028 219.273682,347.062653 
	C147.727371,348.345917 85.866692,298.832977 71.443161,228.940765 
	C59.161762,169.428696 86.615135,107.598984 139.779480,75.585304 
	C160.671906,63.004608 183.298004,55.644089 207.830688,54.890564 
	C270.192352,52.975117 316.515778,79.827271 347.151764,133.690674 
	C363.262024,162.015289 366.142395,192.917099 361.973419,225.155273 
M260.133423,264.762421 
	C267.577698,263.217651 274.263062,260.031525 280.638184,255.902695 
	C292.509338,248.214340 302.387482,238.380829 311.849274,228.017975 
	C320.955841,218.044174 330.092590,208.066040 342.604919,202.110962 
	C343.947906,201.471786 345.559906,200.854828 345.657410,199.111099 
	C346.089508,191.383972 345.755402,183.731735 343.389252,175.952606 
	C335.908936,180.451218 329.946228,185.770355 323.842957,190.917236 
	C311.998291,200.905838 301.392273,212.285233 289.126007,221.796844 
	C263.660461,241.543564 234.022995,236.560272 216.706955,214.803131 
	C209.975174,206.344849 203.329865,197.792358 195.971313,189.809479 
	C183.335510,176.101608 168.023178,172.048615 150.161774,175.827637 
	C127.194679,180.686890 108.638863,193.288940 91.909233,209.040237 
	C86.224739,214.392319 85.815628,221.973587 90.568764,228.933609 
	C100.447884,219.101715 111.267410,210.610565 124.144882,205.020599 
	C145.052582,195.944733 164.793625,199.550919 181.135941,215.265152 
	C189.599411,223.403381 196.390686,232.893570 203.383377,242.214874 
	C217.499786,261.032166 235.905777,269.025909 260.133423,264.762421 
M256.617706,77.907860 
	C240.864166,73.362183 224.990509,70.957581 208.406494,71.999420 
	C168.541260,74.503845 136.795975,91.704071 112.338623,122.938873 
	C111.013924,124.630669 109.914284,126.498680 108.709885,128.284668 
	C112.887581,126.772095 116.304649,124.716721 119.762413,122.732254 
	C134.905151,114.041641 150.945908,107.716118 168.249481,105.021393 
	C187.329926,102.049942 204.449966,107.600388 220.390411,117.717255 
	C231.073563,124.497505 241.691772,131.380295 252.388931,138.138229 
	C261.931519,144.166763 272.240570,144.473022 282.691315,141.381973 
	C294.127777,137.999405 302.959961,130.150742 312.409302,123.351517 
	C316.398163,120.481323 315.940948,118.200111 313.000061,114.973114 
	C297.542267,98.011612 279.068726,85.672646 256.617706,77.907860 
M209.547714,136.944916 
	C195.259613,128.063568 179.959732,123.766182 163.355148,128.459106 
	C136.186661,136.137711 114.045891,152.109039 94.266212,171.719849 
	C93.929306,172.053879 93.695435,172.564987 94.584114,173.177963 
	C96.178101,172.327835 97.985222,171.495224 99.659721,170.450119 
	C112.643456,162.346756 126.728340,156.861893 141.479019,153.063797 
	C159.353897,148.461288 177.080063,147.921722 194.034622,156.591827 
	C206.104355,162.763947 215.497803,172.290466 224.447342,182.212830 
	C229.169968,187.448792 234.319336,192.187744 240.109406,196.113205 
	C255.605438,206.618958 270.612854,203.416962 285.459564,194.245789 
	C303.054840,183.376740 318.680115,169.664444 336.501373,159.138168 
	C337.526306,158.532791 338.736755,157.811234 338.279480,156.464569 
	C335.946533,149.594177 332.750122,143.162415 328.679993,136.644073 
	C326.371429,138.420425 324.691162,139.503860 323.259186,140.851196 
	C316.795105,146.933151 309.428101,151.784943 302.145935,156.787918 
	C280.847778,171.420181 256.809784,171.347076 236.060226,156.084030 
	C227.475052,149.768921 218.803253,143.571609 209.547714,136.944916 
M171.980576,287.522064 
	C175.651596,292.491272 179.778259,297.061340 184.135162,301.432220 
	C207.803787,325.176636 239.532135,331.478790 270.105011,317.902069 
	C301.162262,304.110199 323.065063,281.015961 336.930420,250.143127 
	C338.891785,245.775940 340.560699,241.295593 341.592590,235.682327 
	C333.083801,242.307831 327.338776,250.277176 321.465668,258.030243 
	C311.484680,271.206146 299.754944,282.302185 285.538269,290.814850 
	C257.392273,307.668152 222.721054,308.015961 196.920715,282.273560 
	C188.215973,273.588348 181.748520,263.310699 175.405533,252.939636 
	C170.928284,245.619064 165.784088,238.925690 158.882294,233.754807 
	C152.227066,228.768646 144.964798,225.759323 136.517563,228.423416 
	C121.274963,233.230621 110.049591,243.385269 100.606018,255.829956 
	C99.851265,256.824554 99.601768,257.951141 100.264893,259.101501 
	C102.302284,262.635864 103.648537,266.629669 106.740341,269.416016 
	C108.891205,268.796570 109.945557,267.199402 111.259926,265.981201 
	C127.007912,251.385788 144.465546,252.343384 158.190506,268.881531 
	C162.966934,274.636963 167.106644,280.920807 171.980576,287.522064 
M153.821594,309.615265 
	C152.748413,308.134705 151.729492,306.611023 150.592255,305.181396 
	C146.561615,300.114502 143.535370,294.264923 138.769257,289.779602 
	C132.991837,284.342529 125.063347,283.381348 119.728249,287.618469 
	C130.773254,299.784607 143.725449,309.225433 158.848053,315.884399 
	C157.319229,313.978668 155.790405,312.072937 153.821594,309.615265 
z"/>
</svg>