<svg version="1.1" id="Layer_1" xmlns="http://www.w3.org/2000/svg" xmlns:xlink="http://www.w3.org/1999/xlink" x="0px" y="0px"
	 width="100%" viewBox="0 0 362 359" enable-background="new 0 0 362 359" xml:space="preserve">
<path fill="#EFEADE" opacity="1.000000" stroke="none" 
	d="
M363.000000,130.000000 
	C363.000000,206.999969 363.000000,283.499939 363.000000,359.999939 
	C242.333405,359.999939 121.666809,359.999939 1.000159,359.999969 
	C1.000106,240.333450 1.000106,120.666893 1.000053,1.000255 
	C121.666512,1.000170 242.333023,1.000170 362.999756,1.000085 
	C363.000000,43.833332 363.000000,86.666664 363.000000,130.000000 
M343.981995,253.511856 
	C362.919556,211.466003 365.193115,168.294754 349.849274,125.049667 
	C322.375580,47.617832 248.458908,0.053896 166.684998,8.240041 
	C94.166382,15.499666 43.456047,54.873138 17.953609,122.531189 
	C-3.631102,179.795517 5.310338,235.082718 41.486301,285.040833 
	C84.356781,344.243958 160.241776,370.572052 230.491394,350.496918 
	C282.658722,335.589142 320.033478,302.838654 343.981995,253.511856 
z"/>
<path fill="#1C1E19" opacity="1.000000" stroke="none" 
	d="
M343.859192,253.868851 
	C320.033478,302.838654 282.658722,335.589142 230.491394,350.496918 
	C160.241776,370.572052 84.356781,344.243958 41.486301,285.040833 
	C5.310338,235.082718 -3.631102,179.795517 17.953609,122.531189 
	C43.456047,54.873138 94.166382,15.499666 166.684998,8.240041 
	C248.458908,0.053896 322.375580,47.617832 349.849274,125.049667 
	C365.193115,168.294754 362.919556,211.466003 343.859192,253.868851 
M117.158981,323.553101 
	C117.537605,323.533905 117.916237,323.514679 118.294861,323.495483 
	C118.182465,323.252014 118.068130,322.802521 117.958031,322.803589 
	C117.623932,322.806732 117.291473,322.984192 117.559174,322.549011 
	C110.840332,313.680115 104.245972,304.712738 97.344475,295.988342 
	C94.375938,292.235718 91.105782,288.564941 87.379234,285.603790 
	C81.097427,280.612274 72.397011,280.740845 65.748329,285.477234 
	C66.814491,286.719391 67.710869,288.106995 68.921112,289.119354 
	C78.466560,297.104034 87.760010,305.442413 97.778595,312.788849 
	C103.568596,317.034515 110.557755,319.644836 117.158981,323.553101 
M52.722012,98.092690 
	C67.026711,90.662064 80.912094,82.234489 95.722137,76.005318 
	C128.001923,62.428303 159.539505,63.202652 189.316833,83.812309 
	C200.402679,91.485107 211.922806,98.537903 223.342072,105.718895 
	C230.900101,110.471741 238.935394,113.844917 248.151871,113.816345 
	C260.657959,113.777565 271.594604,109.180672 281.644348,102.333199 
	C289.668762,96.865715 297.296722,90.816444 305.285980,84.887901 
	C303.642548,82.783089 302.803253,81.550270 301.809418,80.458138 
	C266.439270,41.590691 223.036362,22.420895 170.050888,26.745321 
	C121.327141,30.721928 83.198166,53.247379 54.732864,92.643333 
	C53.562599,94.262985 52.950714,96.286095 51.739693,97.830910 
	C51.660912,98.058800 51.582130,98.286690 51.503357,98.514580 
	C51.670586,98.345741 51.837814,98.176903 52.722012,98.092690 
M150.163284,210.338608 
	C156.933151,218.998642 163.610245,227.733139 170.490219,236.304794 
	C191.452011,262.420837 225.651459,268.933960 254.960220,252.664017 
	C272.294464,243.041397 285.925354,229.199692 299.114594,214.784988 
	C310.382660,202.469925 321.801453,190.329010 337.424164,183.273239 
	C338.463684,182.803726 339.878967,181.433441 339.830475,180.553146 
	C339.287598,170.701584 338.491272,160.863953 337.703003,150.208878 
	C335.574677,151.248734 334.760651,151.475769 334.160461,151.965134 
	C323.451233,160.696472 312.708466,169.388290 302.093872,178.233780 
	C288.431366,189.619186 275.474731,201.961975 261.098053,212.347443 
	C247.994125,221.813492 232.493423,223.504990 216.637344,219.643265 
	C200.312653,215.667389 189.181122,204.696350 179.186554,192.059799 
	C172.993011,184.229050 166.500336,176.631821 160.045532,169.011414 
	C144.679337,150.870453 124.945679,146.579590 102.629715,151.510056 
	C73.260262,157.998886 50.003120,174.846603 29.235092,195.708878 
	C28.477795,196.469589 27.645716,197.734863 27.742064,198.673233 
	C28.411734,205.195480 29.317930,211.693436 30.148270,218.199188 
	C30.903852,218.558212 31.659437,218.917221 32.415020,219.276245 
	C33.246960,217.844986 33.834740,216.179581 34.948318,215.018417 
	C47.097961,202.349747 61.080540,192.344543 77.609444,186.132904 
	C95.007912,179.594498 112.215172,179.913177 127.876434,190.221695 
	C135.947083,195.533905 142.458145,203.215515 150.163284,210.338608 
M74.902092,131.396545 
	C81.546349,129.274963 88.096458,126.774452 94.850853,125.096092 
	C127.536247,116.974304 156.572449,122.775063 180.491638,147.914886 
	C188.064499,155.874207 195.681427,163.838394 203.815674,171.207016 
	C220.512360,186.332184 239.170715,189.356888 259.530396,178.873032 
	C261.898041,177.653854 264.336609,176.511887 266.526886,175.018250 
	C287.430145,160.763580 308.298920,146.458115 329.113800,132.074921 
	C329.958527,131.491180 330.876740,129.686584 330.566620,128.961349 
	C326.937286,120.473541 323.078949,112.083664 318.964752,102.966972 
	C316.685791,104.841110 315.472565,105.906975 314.190552,106.882378 
	C304.264282,114.434525 294.614899,122.396614 284.309357,129.391434 
	C273.578796,136.674774 261.651672,141.262573 248.381195,141.655975 
	C231.255737,142.163696 217.137711,134.688568 203.813889,125.113716 
	C195.160355,118.895065 186.851639,112.180954 178.043762,106.196053 
	C159.828888,93.819176 139.870285,88.335999 118.268661,94.795425 
	C84.373779,104.930847 56.587994,124.836205 32.775242,150.615829 
	C32.312611,151.116653 32.170422,151.913483 32.083954,152.108749 
	C46.035480,145.334412 60.104416,138.503052 74.902092,131.396545 
M311.622620,272.114899 
	C322.039642,257.052704 330.457825,241.063995 334.583374,222.946548 
	C332.681793,223.672943 331.145935,224.628830 329.967133,225.912567 
	C325.019501,231.300461 319.809265,236.502838 315.367096,242.288971 
	C301.188385,260.757477 286.072449,278.127075 265.492859,289.894165 
	C230.531235,309.884705 188.605728,310.235077 157.758179,275.897278 
	C149.374435,266.564941 143.156204,255.315506 135.589493,245.211502 
	C129.832581,237.524155 124.130478,229.623978 117.287712,222.965683 
	C109.012733,214.913727 98.563164,211.329987 86.935951,214.835693 
	C68.253075,220.468765 54.797417,233.136154 43.393375,248.324753 
	C42.822781,249.084717 42.627827,250.708099 43.044044,251.532639 
	C45.622852,256.641388 48.426743,261.636505 51.406506,267.131500 
	C54.243324,264.444946 56.367367,262.367706 58.560787,260.366547 
	C76.448105,244.047119 96.479584,245.186279 112.238144,263.581482 
	C116.020294,267.996429 119.075439,273.031647 122.827789,277.475189 
	C131.609161,287.874054 139.569931,299.278046 149.721359,308.148224 
	C178.127808,332.969238 210.420807,339.054626 245.885345,324.494141 
	C272.644592,313.507782 293.943481,295.657867 311.622620,272.114899 
z"/>
<path fill="#ECE7DB" opacity="1.000000" stroke="none" 
	d="
M149.918594,210.082550 
	C142.458145,203.215515 135.947083,195.533905 127.876434,190.221695 
	C112.215172,179.913177 95.007912,179.594498 77.609444,186.132904 
	C61.080540,192.344543 47.097961,202.349747 34.948318,215.018417 
	C33.834740,216.179581 33.246960,217.844986 32.415020,219.276245 
	C31.659437,218.917221 30.903852,218.558212 30.148270,218.199188 
	C29.317930,211.693436 28.411734,205.195480 27.742064,198.673233 
	C27.645716,197.734863 28.477795,196.469589 29.235092,195.708878 
	C50.003120,174.846603 73.260262,157.998886 102.629715,151.510056 
	C124.945679,146.579590 144.679337,150.870453 160.045532,169.011414 
	C166.500336,176.631821 172.993011,184.229050 179.186554,192.059799 
	C189.181122,204.696350 200.312653,215.667389 216.637344,219.643265 
	C232.493423,223.504990 247.994125,221.813492 261.098053,212.347443 
	C275.474731,201.961975 288.431366,189.619186 302.093872,178.233780 
	C312.708466,169.388290 323.451233,160.696472 334.160461,151.965134 
	C334.760651,151.475769 335.574677,151.248734 337.703003,150.208878 
	C338.491272,160.863953 339.287598,170.701584 339.830475,180.553146 
	C339.878967,181.433441 338.463684,182.803726 337.424164,183.273239 
	C321.801453,190.329010 310.382660,202.469925 299.114594,214.784988 
	C285.925354,229.199692 272.294464,243.041397 254.960220,252.664017 
	C225.651459,268.933960 191.452011,262.420837 170.490219,236.304794 
	C163.610245,227.733139 156.933151,218.998642 149.918594,210.082550 
z"/>
<path fill="#EDE8DD" opacity="1.000000" stroke="none" 
	d="
M52.078682,98.121231 
	C52.950714,96.286095 53.562599,94.262985 54.732864,92.643333 
	C83.198166,53.247379 121.327141,30.721928 170.050888,26.745321 
	C223.036362,22.420895 266.439270,41.590691 301.809418,80.458138 
	C302.803253,81.550270 303.642548,82.783089 305.285980,84.887901 
	C297.296722,90.816444 289.668762,96.865715 281.644348,102.333199 
	C271.594604,109.180672 260.657959,113.777565 248.151871,113.816345 
	C238.935394,113.844917 230.900101,110.471741 223.342072,105.718895 
	C211.922806,98.537903 200.402679,91.485107 189.316833,83.812309 
	C159.539505,63.202652 128.001923,62.428303 95.722137,76.005318 
	C80.912094,82.234489 67.026711,90.662064 52.383888,98.077400 
	C52.045761,98.062111 52.078678,98.121231 52.078682,98.121231 
z"/>
<path fill="#ECE7DB" opacity="1.000000" stroke="none" 
	d="
M74.537720,131.534119 
	C60.104416,138.503052 46.035480,145.334412 32.083954,152.108749 
	C32.170422,151.913483 32.312611,151.116653 32.775242,150.615829 
	C56.587994,124.836205 84.373779,104.930847 118.268661,94.795425 
	C139.870285,88.335999 159.828888,93.819176 178.043762,106.196053 
	C186.851639,112.180954 195.160355,118.895065 203.813889,125.113716 
	C217.137711,134.688568 231.255737,142.163696 248.381195,141.655975 
	C261.651672,141.262573 273.578796,136.674774 284.309357,129.391434 
	C294.614899,122.396614 304.264282,114.434525 314.190552,106.882378 
	C315.472565,105.906975 316.685791,104.841110 318.964752,102.966972 
	C323.078949,112.083664 326.937286,120.473541 330.566620,128.961349 
	C330.876740,129.686584 329.958527,131.491180 329.113800,132.074921 
	C308.298920,146.458115 287.430145,160.763580 266.526886,175.018250 
	C264.336609,176.511887 261.898041,177.653854 259.530396,178.873032 
	C239.170715,189.356888 220.512360,186.332184 203.815674,171.207016 
	C195.681427,163.838394 188.064499,155.874207 180.491638,147.914886 
	C156.572449,122.775063 127.536247,116.974304 94.850853,125.096092 
	C88.096458,126.774452 81.546349,129.274963 74.537720,131.534119 
z"/>
<path fill="#EBE6DB" opacity="1.000000" stroke="none" 
	d="
M311.407288,272.403259 
	C293.943481,295.657867 272.644592,313.507782 245.885345,324.494141 
	C210.420807,339.054626 178.127808,332.969238 149.721359,308.148224 
	C139.569931,299.278046 131.609161,287.874054 122.827789,277.475189 
	C119.075439,273.031647 116.020294,267.996429 112.238144,263.581482 
	C96.479584,245.186279 76.448105,244.047119 58.560787,260.366547 
	C56.367367,262.367706 54.243324,264.444946 51.406506,267.131500 
	C48.426743,261.636505 45.622852,256.641388 43.044044,251.532639 
	C42.627827,250.708099 42.822781,249.084717 43.393375,248.324753 
	C54.797417,233.136154 68.253075,220.468765 86.935951,214.835693 
	C98.563164,211.329987 109.012733,214.913727 117.287712,222.965683 
	C124.130478,229.623978 129.832581,237.524155 135.589493,245.211502 
	C143.156204,255.315506 149.374435,266.564941 157.758179,275.897278 
	C188.605728,310.235077 230.531235,309.884705 265.492859,289.894165 
	C286.072449,278.127075 301.188385,260.757477 315.367096,242.288971 
	C319.809265,236.502838 325.019501,231.300461 329.967133,225.912567 
	C331.145935,224.628830 332.681793,223.672943 334.583374,222.946548 
	C330.457825,241.063995 322.039642,257.052704 311.407288,272.403259 
z"/>
<path fill="#E2DED4" opacity="1.000000" stroke="none" 
	d="
M117.007210,322.991180 
	C110.557755,319.644836 103.568596,317.034515 97.778595,312.788849 
	C87.760010,305.442413 78.466560,297.104034 68.921112,289.119354 
	C67.710869,288.106995 66.814491,286.719391 65.748329,285.477234 
	C72.397011,280.740845 81.097427,280.612274 87.379234,285.603790 
	C91.105782,288.564941 94.375938,292.235718 97.344475,295.988342 
	C104.245972,304.712738 110.840332,313.680115 117.268799,322.794708 
	C116.978416,323.040405 117.007210,322.991180 117.007210,322.991180 
z"/>
<path fill="#E2DED4" opacity="1.000000" stroke="none" 
	d="
M116.968399,323.067078 
	C117.291473,322.984192 117.623932,322.806732 117.958031,322.803589 
	C118.068130,322.802521 118.182465,323.252014 118.294861,323.495483 
	C117.916237,323.514679 117.537605,323.533905 117.083099,323.272156 
	C117.007210,322.991180 116.978416,323.040405 116.968399,323.067078 
z"/>
<path fill="#EDE8DD" opacity="1.000000" stroke="none" 
	d="
M52.025402,98.035088 
	C51.837814,98.176903 51.670586,98.345741 51.503357,98.514580 
	C51.582130,98.286690 51.660912,98.058800 51.909187,97.976074 
	C52.078678,98.121231 52.045761,98.062111 52.025402,98.035088 
z"/>
</svg>