<svg version="1.1" id="Layer_1" xmlns="http://www.w3.org/2000/svg" xmlns:xlink="http://www.w3.org/1999/xlink" x="0px" y="0px"
	 width="100%" viewBox="0 0 1024 624" enable-background="new 0 0 1024 624" xml:space="preserve">
<path fill="#000000" opacity="1.000000" stroke="none" 
	d="
M367.076508,434.248779 
	C315.767395,447.259064 258.146393,427.067383 226.138046,385.041168 
	C197.479340,347.412903 188.728149,305.388550 203.279892,260.544342 
	C219.962234,209.134247 256.280609,177.237946 309.505951,167.159119 
	C357.578064,158.056137 399.709625,172.035675 434.073212,206.824387 
	C456.930054,229.964020 469.624756,258.235229 472.308746,291.020386 
	C477.757050,357.572052 431.487335,418.018402 368.915771,433.729279 
	C368.431824,433.850800 367.958527,434.014832 367.076508,434.248779 
M268.510223,279.062866 
	C248.697174,284.507935 232.335312,295.652924 217.855255,309.852173 
	C213.281357,314.337341 213.180176,321.795685 217.676010,327.407898 
	C223.801788,320.988617 230.476791,315.254181 238.031647,310.629913 
	C262.433533,295.693695 286.397675,296.484467 306.159637,319.201172 
	C312.843628,326.884521 318.771545,335.128723 325.152740,343.031006 
	C341.482971,363.253815 368.920227,368.215759 391.317719,355.055908 
	C403.691986,347.785309 413.871307,338.039917 423.440735,327.531708 
	C432.202545,317.910339 441.029083,308.354584 452.982391,302.486389 
	C454.349823,301.815063 455.692749,300.959503 455.748749,299.228271 
	C455.968109,292.447540 456.016296,285.676056 453.928772,279.230499 
	C451.406860,278.824921 450.014893,280.180267 448.648285,281.294678 
	C442.327209,286.449127 436.013611,291.616699 429.822205,296.925232 
	C419.340851,305.911957 410.085907,316.327209 398.431580,323.947205 
	C376.890717,338.031281 352.915771,334.720215 336.072784,315.233643 
	C331.719574,310.197174 327.888916,304.706329 323.495514,299.707855 
	C316.920013,292.226715 310.763458,284.154755 301.175537,280.118500 
	C290.738556,275.724854 280.048157,276.263885 268.510223,279.062866 
M397.116638,245.709152 
	C409.217773,241.647461 418.683899,233.607697 428.953186,225.261703 
	C403.423553,195.803299 372.003357,179.937424 333.636444,180.565475 
	C292.343231,181.241425 259.029419,198.502213 235.263779,232.872833 
	C240.672684,230.451111 245.810791,227.512909 251.068436,224.806946 
	C261.926208,219.218781 273.295105,215.127197 285.273285,212.501007 
	C305.975861,207.962021 324.028503,214.143417 341.096649,225.236938 
	C350.450226,231.316330 359.843353,237.346909 369.399170,243.099625 
	C377.845795,248.184570 386.940643,248.991684 397.116638,245.709152 
M333.077454,274.405762 
	C337.983704,279.388611 342.819641,284.443390 347.816467,289.333679 
	C352.595245,294.010590 357.743195,298.203156 364.112732,300.644348 
	C377.270599,305.687195 388.922119,301.635071 400.109436,294.761322 
	C416.154358,284.902954 430.399231,272.427399 446.582153,262.767517 
	C447.954956,261.948059 449.126190,260.849762 448.535278,259.137878 
	C446.429138,253.036484 443.760956,247.202576 439.938873,241.267822 
	C437.809753,242.964218 436.064850,244.188232 434.512482,245.620911 
	C428.612762,251.065903 422.053986,255.623093 415.353058,259.987823 
	C393.203827,274.415039 373.346985,273.983337 351.849854,258.540192 
	C346.036896,254.364304 340.347961,250.013641 334.648712,245.681915 
	C314.396912,230.289551 292.834076,228.210114 269.895905,239.106079 
	C257.495178,244.996628 246.116074,252.528961 235.272934,260.837097 
	C229.314758,265.402344 223.541992,270.322449 219.151611,276.624939 
	C229.665756,270.080048 240.579620,264.524811 252.224289,260.365051 
	C281.571625,249.881409 309.094513,249.768539 333.077454,274.405762 
M409.101135,396.590179 
	C429.863312,380.845490 443.953857,360.512817 452.209137,334.405975 
	C444.393494,339.191986 440.363342,345.604828 435.836365,351.454224 
	C425.673035,364.586578 414.569000,376.642975 400.013092,385.076599 
	C379.042847,397.226654 357.285095,400.874207 334.660736,390.253326 
	C320.157410,383.444824 310.166779,371.599548 301.787476,358.297913 
	C297.529083,351.537933 293.589050,344.576416 288.267426,338.530914 
	C276.360291,325.004120 263.624176,323.004974 248.365677,332.576904 
	C241.717026,336.747711 235.637512,341.612091 230.640839,347.802887 
	C225.332977,354.379272 225.845642,359.687653 232.916504,365.217163 
	C233.876526,364.389893 234.894287,363.560822 235.859207,362.674255 
	C251.543976,348.262970 267.030762,349.155457 280.872162,365.309296 
	C282.277710,366.949646 283.562653,368.700623 284.817902,370.461304 
	C291.779785,380.226685 298.469208,390.237061 307.746735,398.052338 
	C321.337128,409.500732 336.339111,417.199066 354.791595,417.122925 
	C375.314148,417.038300 392.502472,408.745819 409.101135,396.590179 
M271.291748,404.174805 
	C274.368347,405.860474 277.119354,408.221466 281.016876,409.101410 
	C275.936615,402.180420 271.128448,395.611145 266.298248,389.058105 
	C264.004730,385.946564 261.421844,383.097107 257.838226,381.464111 
	C253.461334,379.469604 249.097290,379.302734 243.999298,381.922699 
	C252.305725,390.787933 260.907104,397.987122 271.291748,404.174805 
z"/>
<path fill="#000000" opacity="1.000000" stroke="none" 
	d="
M488.576050,315.008240 
	C488.323883,305.055725 489.759277,295.902618 493.944885,287.355621 
	C499.958740,275.075500 510.149170,268.971802 523.592102,268.936249 
	C536.802856,268.901306 547.649780,274.411530 552.937317,286.820618 
	C561.391174,306.660431 561.786621,327.007324 552.297363,346.705383 
	C546.631226,358.467194 536.372375,363.464478 523.363159,363.460297 
	C510.293762,363.456085 500.649323,357.968018 494.451599,346.518524 
	C489.205627,336.827271 488.352448,326.256317 488.576050,315.008240 
M540.189331,334.609467 
	C542.670898,325.115906 542.103760,315.446777 541.499146,305.839630 
	C541.187988,300.895447 540.025635,295.967621 537.596741,291.495514 
	C534.442139,285.687103 529.645691,282.878632 522.946472,283.038666 
	C516.400330,283.195099 511.436188,286.102936 509.250854,292.051544 
	C503.312988,308.214905 503.256256,324.563873 509.480499,340.718109 
	C511.031891,344.744629 514.192810,347.445984 518.424316,348.837280 
	C528.208008,352.054169 536.369629,346.990295 540.189331,334.609467 
z"/>
<path fill="#000000" opacity="1.000000" stroke="none" 
	d="
M677.183838,289.966217 
	C677.183899,294.093445 677.183899,297.727997 677.183899,302.099335 
	C682.362183,299.135010 686.612488,295.936554 691.894775,294.879028 
	C708.475586,291.559601 723.529114,301.972748 726.259338,318.739288 
	C731.238586,349.317322 706.304260,370.151520 676.861694,359.824646 
	C673.092407,358.502533 670.054749,358.369049 666.475769,360.171234 
	C662.246216,362.300995 660.805725,361.214447 660.792969,356.329041 
	C660.716064,326.856293 660.745911,297.383179 660.603699,267.910797 
	C660.585754,264.178619 662.064209,263.020264 665.592834,262.875763 
	C677.125671,262.403320 677.123962,262.308319 677.156921,273.987640 
	C677.171509,279.149597 677.175110,284.311554 677.183838,289.966217 
M709.895813,327.498932 
	C709.876160,326.835266 709.865845,326.171204 709.835266,325.508026 
	C709.483215,317.871735 706.265259,311.974152 698.921875,309.200684 
	C691.456604,306.381256 684.958923,308.957489 679.119507,313.800049 
	C677.564331,315.089752 677.195923,316.782196 677.208008,318.696777 
	C677.255310,326.166168 677.347839,333.637451 677.225037,341.104767 
	C677.176758,344.038574 678.340027,345.628479 681.016418,346.726807 
	C695.344971,352.607178 709.199768,343.859833 709.895813,327.498932 
z"/>
<path fill="#000000" opacity="1.000000" stroke="none" 
	d="
M965.688110,330.003204 
	C965.673828,325.004211 965.802734,320.498108 965.603394,316.006592 
	C965.431580,312.133545 963.088989,310.691345 959.513367,311.921600 
	C954.598389,313.612732 951.131348,318.373016 951.123474,323.579285 
	C951.107788,333.912231 950.909546,344.252655 951.244690,354.575134 
	C951.415833,359.844879 948.910889,360.588806 944.545166,360.443512 
	C937.217285,360.199646 937.023926,360.295471 936.986145,354.497498 
	C936.905823,342.164917 936.926270,329.831696 936.869873,317.498901 
	C936.860107,315.365723 937.173706,312.979889 934.647888,311.876007 
	C932.350952,310.872162 930.404480,312.050507 928.617615,313.285400 
	C924.443481,316.170135 921.911926,319.648834 922.165833,325.299805 
	C922.621765,335.445831 922.194824,345.628479 922.359985,355.792206 
	C922.420288,359.501526 921.146667,360.719666 917.387573,360.569244 
	C907.755920,360.183929 907.747620,360.341461 907.736633,350.832367 
	C907.717285,334.166229 907.768250,317.499542 907.630920,300.834381 
	C907.600342,297.124908 908.168884,294.821655 912.685059,294.865387 
	C918.959656,294.926117 919.837585,295.346130 920.240906,300.676819 
	C920.415222,302.980286 920.159058,305.357910 921.603088,307.829773 
	C923.798828,306.655487 924.641357,304.416351 926.031555,302.726868 
	C929.389160,298.646057 933.072083,295.123108 938.728088,294.698395 
	C945.765015,294.169983 949.296021,297.028381 950.305664,304.058105 
	C950.442444,305.010406 950.609680,305.958313 950.831299,307.332916 
	C954.231018,306.102325 955.194702,303.024109 957.010437,300.894592 
	C960.591980,296.694244 964.782532,294.255676 970.474670,294.663605 
	C975.028198,294.989960 978.026428,297.212067 979.176270,301.567810 
	C979.806702,303.955902 980.168274,306.485077 980.184570,308.953735 
	C980.284790,324.119293 980.104553,339.288208 980.351929,354.450531 
	C980.427307,359.073853 978.902771,360.547546 974.321960,360.416565 
	C965.755676,360.171631 965.745605,360.403931 965.725708,352.001831 
	C965.708679,344.835358 965.700806,337.668915 965.688110,330.003204 
z"/>
<path fill="#000000" opacity="1.000000" stroke="none" 
	d="
M845.302734,339.359100 
	C847.002808,345.687103 850.317810,347.702087 856.059265,346.071686 
	C862.689697,344.188843 867.666382,339.722504 872.534790,335.138458 
	C874.072510,333.690552 873.739685,331.768097 873.742432,329.967163 
	C873.757874,319.974609 873.856262,309.979706 873.668701,299.990479 
	C873.599182,296.287628 875.004883,294.962891 878.611511,294.961639 
	C892.366760,294.956879 890.177551,294.518585 890.260437,305.844543 
	C890.379883,322.165039 890.251587,338.487335 890.363831,354.807922 
	C890.388550,358.401886 890.008179,360.841827 885.449280,360.965149 
	C877.123169,361.190399 876.246216,360.934052 875.485535,355.763977 
	C875.222229,353.974152 874.859436,352.198944 874.529358,350.345856 
	C872.107605,350.445953 870.876892,352.162750 869.350342,353.337341 
	C864.146606,357.341248 858.612000,360.521240 851.975342,361.636261 
	C838.965881,363.821991 829.299683,356.653503 828.862488,343.429901 
	C828.378418,328.789703 828.757507,314.122131 828.651062,299.467285 
	C828.629150,296.447998 830.010559,295.440399 832.800781,295.143097 
	C844.196167,293.928833 845.143311,294.704651 845.177551,305.951538 
	C845.210999,316.943298 845.244507,327.935028 845.302734,339.359100 
z"/>
<path fill="#000000" opacity="1.000000" stroke="none" 
	d="
M630.750854,312.905029 
	C618.959106,312.750671 612.116211,320.043549 605.597900,327.839142 
	C603.562683,330.273193 604.372131,333.256866 604.297974,336.034790 
	C604.205261,339.507721 604.275696,342.985046 604.275696,346.478363 
	C608.858032,348.404755 613.191833,346.809631 617.436768,347.045105 
	C623.075562,347.357971 623.171692,347.559021 623.367493,354.757172 
	C623.485107,359.077026 622.804321,361.562622 617.488831,361.431549 
	C604.498352,361.111084 591.486389,361.091125 578.498901,361.479675 
	C572.699524,361.653168 572.531738,358.651367 572.572144,354.365784 
	C572.609985,350.339294 572.541199,347.341827 578.193298,347.519989 
	C588.611938,347.848419 587.740906,348.774902 587.749939,337.859467 
	C587.756165,330.360138 587.588074,322.855927 587.815918,315.363556 
	C587.933533,311.495819 586.665405,310.054413 582.693298,310.094269 
	C575.368042,310.167755 572.649292,305.632599 575.206909,298.435974 
	C575.910706,296.455597 577.367432,296.025818 579.095215,296.002869 
	C585.426025,295.918762 591.758057,295.926697 598.088928,295.845581 
	C601.307068,295.804321 602.384521,297.427246 602.464478,300.499939 
	C602.576172,304.790375 603.075256,309.070740 603.499084,314.518677 
	C605.981934,311.508057 607.928040,309.352081 609.647339,307.028351 
	C617.208801,296.808838 628.233276,294.779205 639.579590,295.893616 
	C645.015930,296.427582 642.159302,303.073364 643.164551,306.889404 
	C643.854553,309.509186 643.179932,311.917419 639.647339,312.123596 
	C636.824402,312.288422 634.009644,312.592010 630.750854,312.905029 
z"/>
<path fill="#000000" opacity="1.000000" stroke="none" 
	d="
M752.238770,361.118286 
	C748.802795,361.217407 747.531555,359.739227 747.648621,356.834869 
	C747.722351,355.006836 747.760559,353.165558 747.628357,351.343719 
	C747.393005,348.097382 748.915222,346.822266 752.042480,346.866577 
	C756.536011,346.930267 761.033203,346.769836 765.525757,346.860046 
	C768.456787,346.918884 769.736694,345.791962 769.701782,342.750854 
	C769.589172,332.930054 769.593506,323.107086 769.656799,313.285614 
	C769.674866,310.482391 768.422485,309.380524 765.741089,309.414825 
	C762.079468,309.461639 758.410400,309.265717 754.756042,309.430084 
	C751.345276,309.583435 749.792542,308.191559 749.962585,304.781952 
	C750.045349,303.121033 750.012268,301.453552 750.004517,299.789154 
	C749.991028,296.907593 751.301208,295.512756 754.286194,295.687866 
	C763.091064,296.204468 771.873291,294.940186 780.710083,295.472229 
	C784.990845,295.729950 786.106323,297.379333 786.081299,301.232422 
	C785.996826,314.216553 786.085083,327.201904 786.128540,340.186737 
	C786.150757,346.815582 786.171204,346.816895 792.793152,346.811859 
	C795.123779,346.810120 797.454407,346.796234 799.785034,346.794098 
	C807.721313,346.786865 810.761963,351.141693 808.075989,358.666412 
	C806.999634,361.682068 804.342712,361.016296 802.152893,361.027679 
	C785.672607,361.113556 769.191772,361.104614 752.238770,361.118286 
z"/>
<path fill="#000000" opacity="1.000000" stroke="none" 
	d="
M789.021973,271.508453 
	C785.494080,279.980377 775.296692,282.843262 768.224609,277.723206 
	C763.289429,274.150238 762.705566,266.782715 767.010132,262.398865 
	C770.552856,258.790894 777.616760,257.600861 782.854309,259.821960 
	C787.847961,261.939636 789.439575,266.007538 789.021973,271.508453 
z"/>
</svg>