<svg version="1.1" id="Layer_1" xmlns="http://www.w3.org/2000/svg" xmlns:xlink="http://www.w3.org/1999/xlink" x="0px" y="0px"
	 width="100%" viewBox="0 0 816 368" enable-background="new 0 0 816 368" xml:space="preserve">
<path fill="#000000" opacity="1.000000" stroke="none" 
	d="
M84.468735,319.551331 
	C50.356499,290.460480 28.762125,254.329437 24.046253,209.990158 
	C16.870262,142.520508 42.172810,88.887169 97.568527,49.801701 
	C121.611450,32.837769 148.710663,23.981758 178.095520,21.553682 
	C226.597092,17.545992 269.427460,31.289473 306.011139,63.002300 
	C337.303162,90.128014 356.240204,124.473022 362.486664,165.785172 
	C375.118195,249.326279 321.152679,326.822998 247.010712,349.878082 
	C187.979507,368.234375 133.601105,358.014893 84.468735,319.551331 
M198.884048,210.617355 
	C189.335526,200.805695 181.626389,189.470383 172.826981,179.027954 
	C157.593918,160.950531 138.682449,154.973480 116.056946,159.751129 
	C87.671227,165.745102 64.966545,181.668945 44.595833,201.478943 
	C43.791096,202.261551 42.724251,203.424576 42.785877,204.342819 
	C43.190948,210.378204 43.178265,216.529236 45.703255,222.203979 
	C48.188133,221.937347 49.113205,220.186478 50.371742,218.956482 
	C61.694847,207.890106 74.461678,199.112381 89.263832,193.214752 
	C105.561836,186.721130 121.483391,187.105881 137.053406,195.053482 
	C145.942032,199.590637 152.991302,206.551773 159.237930,214.199234 
	C167.347855,224.127823 174.828903,234.580429 183.131042,244.339249 
	C195.059097,258.360138 210.547394,265.942017 228.954834,266.521820 
	C245.401047,267.039856 259.777771,260.716217 273.046844,251.422073 
	C286.392700,242.074158 297.388580,230.237045 308.474243,218.478439 
	C318.226257,208.134384 328.429047,198.360062 341.529327,192.225708 
	C343.043976,191.516479 344.697296,190.716034 344.753265,188.757706 
	C345.018677,179.474792 344.543518,170.257950 342.391174,161.245117 
	C340.014771,161.121918 338.891785,162.549561 337.601379,163.466217 
	C327.814911,170.418015 318.607452,178.092819 309.664124,186.091263 
	C298.004028,196.519470 287.041809,207.738571 274.098969,216.700745 
	C249.176926,233.957794 220.524048,231.880539 198.884048,210.617355 
M222.175354,109.284904 
	C226.254013,111.870270 230.351624,114.426285 234.407837,117.046387 
	C247.679108,125.618935 261.642181,125.963852 275.947784,120.263817 
	C288.969818,115.075218 299.758820,106.366333 310.456299,97.581696 
	C310.911896,97.207558 311.081482,96.485100 311.667358,95.401260 
	C271.701691,50.590389 222.653778,31.462660 163.067871,42.448349 
	C122.686615,49.893337 91.631104,71.826202 67.668289,105.552658 
	C70.883263,106.221260 72.164665,104.656853 73.649353,103.752144 
	C88.656891,94.607109 104.440041,87.160629 121.364601,82.340683 
	C145.953537,75.338005 169.654541,76.441093 192.101105,90.067642 
	C202.074051,96.121872 211.876175,102.415596 222.175354,109.284904 
M277.455536,147.154266 
	C259.094391,154.442474 241.665558,152.149551 224.771072,142.408615 
	C213.013596,135.629532 202.773331,126.795296 191.917130,118.806702 
	C168.358780,101.471222 143.203766,98.677887 116.468750,110.024002 
	C98.254997,117.753769 81.836983,128.591019 66.325714,140.743637 
	C59.054394,146.440506 52.036972,152.566513 45.908653,161.627838 
	C49.015862,159.803268 50.873760,158.802368 52.640835,157.660873 
	C72.322075,144.947021 93.572296,136.131516 116.713287,132.184875 
	C142.076309,127.859245 164.907669,132.745819 184.556778,150.404907 
	C193.514526,158.455414 201.268936,167.605453 209.876953,175.948654 
	C220.245010,185.997772 231.944885,193.298218 247.041595,192.643661 
	C258.030731,192.167206 267.616364,187.326218 276.723450,181.687180 
	C296.417145,169.493011 314.159912,154.399521 334.243805,142.768494 
	C335.571045,141.999863 336.993835,141.147858 336.264343,139.280823 
	C333.079437,131.129608 329.956146,122.939682 324.767853,115.201378 
	C310.008087,127.694565 295.622284,139.573593 277.455536,147.154266 
M90.808418,253.896988 
	C100.208984,251.997833 108.608482,254.219299 116.165794,260.005737 
	C121.106903,263.789032 125.201149,268.338898 128.837051,273.375061 
	C136.631256,284.171082 143.676682,295.566040 153.352158,304.889374 
	C179.921753,330.492004 210.553574,342.473267 246.808914,329.457642 
	C293.271423,312.777679 323.368042,279.553040 339.418213,233.217926 
	C339.709351,232.377533 340.126404,231.315826 338.977539,230.422897 
	C329.262268,237.213257 322.629456,246.877792 315.440216,255.977859 
	C300.565186,274.806519 283.320892,290.587738 260.927795,300.158936 
	C228.391388,314.065521 195.416824,307.895691 170.253616,283.031555 
	C161.635376,274.515778 155.113174,264.469910 148.962906,254.145798 
	C144.692657,246.977570 140.137131,240.015015 134.591415,233.747086 
	C122.673126,220.276749 107.559418,216.472809 92.849419,223.278458 
	C79.252518,229.569138 68.211670,239.009949 59.077312,250.786621 
	C57.934036,252.260605 56.609467,253.869751 57.479935,255.759018 
	C59.670506,260.513428 61.726570,265.389618 65.599663,269.905792 
	C72.834389,262.632355 80.419853,256.742401 90.808418,253.896988 
M108.428291,298.061462 
	C105.958130,294.909821 103.398422,291.829926 100.182220,289.403534 
	C93.543205,284.394897 85.254303,284.112701 79.127640,289.013855 
	C93.310478,304.248413 109.233032,316.879883 128.510056,325.056519 
	C121.261292,316.718475 115.278687,307.512207 108.428291,298.061462 
z"/>
<path fill="#000000" opacity="1.000000" stroke="none" 
	d="
M435.866333,179.995148 
	C415.841919,192.042450 394.557800,183.551590 389.263885,161.333435 
	C386.459351,149.563217 386.315155,137.492142 389.800690,125.784149 
	C395.130707,107.880478 411.449097,99.782806 429.208954,105.713356 
	C439.245026,109.064697 444.574860,116.586739 446.993835,126.290878 
	C449.932343,138.079071 450.100403,150.035400 447.226440,161.896805 
	C445.503448,169.007965 442.238312,175.294968 435.866333,179.995148 
M420.148529,169.735413 
	C425.320160,169.209213 427.486053,165.588058 428.654755,161.180420 
	C431.623962,149.982162 431.214264,138.771027 428.227112,127.654381 
	C426.720581,122.047813 423.336151,119.375465 418.418915,119.380371 
	C413.043945,119.385727 409.600403,121.830597 408.100922,127.701393 
	C405.255463,138.842087 405.191284,150.107346 408.220154,161.228912 
	C409.972412,167.662872 412.575134,169.390717 420.148529,169.735413 
z"/>
<path fill="#000000" opacity="1.000000" stroke="none" 
	d="
M584.438049,129.466278 
	C594.513245,138.986694 597.098206,154.729050 590.968628,167.523590 
	C584.763062,180.476852 570.316528,184.845932 558.729126,183.923996 
	C556.422974,183.740524 554.036743,183.380264 551.895325,182.559250 
	C547.703674,180.952164 543.688477,180.413025 539.383667,182.215897 
	C536.349121,183.486786 534.735596,182.330414 534.737610,178.801208 
	C534.751953,153.653564 534.712585,128.505737 534.595459,103.358398 
	C534.580383,100.119972 535.906006,98.871666 539.034729,98.886955 
	C555.546936,98.967697 552.778259,97.110458 553.023865,111.901604 
	C553.116516,117.481186 553.038879,123.063599 553.038879,129.582413 
	C564.137268,123.468132 574.219849,122.548363 584.438049,129.466278 
M553.720581,166.406616 
	C558.817505,169.730484 565.579651,169.369446 570.298584,165.521469 
	C574.911438,161.759979 576.493286,152.889862 573.670288,146.614929 
	C570.660034,139.923782 561.666809,137.470459 555.474304,141.580505 
	C553.739014,142.732254 553.154846,144.290726 553.178589,146.228500 
	C553.257935,152.694031 553.338379,159.159576 553.720581,166.406616 
z"/>
<path fill="#000000" opacity="1.000000" stroke="none" 
	d="
M762.276550,169.981415 
	C762.276428,171.643250 762.276855,172.809174 762.275757,173.975098 
	C762.267639,182.308701 762.267578,182.308716 753.692505,182.262650 
	C746.813232,182.225693 746.766541,182.225876 746.737000,175.284134 
	C746.674622,160.626999 746.708801,145.969330 746.603455,131.312592 
	C746.579163,127.941704 746.879883,125.182739 751.307556,125.687714 
	C755.023804,126.111542 760.317444,123.720787 760.265076,130.813995 
	C760.254517,132.243652 760.158447,133.830444 762.017395,135.235153 
	C766.063721,131.378891 768.533386,125.356094 775.135925,124.760704 
	C782.629883,124.084923 785.297668,128.904968 786.371094,135.659576 
	C789.491882,133.661636 790.368958,130.993546 792.107849,129.078217 
	C795.403015,125.448593 799.327637,123.691650 804.182068,125.095528 
	C808.950073,126.474396 810.306641,130.285034 810.561340,134.752518 
	C811.377258,149.063095 810.891235,163.386749 811.018188,177.704239 
	C811.046143,180.860413 809.522217,182.008652 806.429321,182.198318 
	C794.974121,182.900818 794.910461,182.914108 794.898376,171.616821 
	C794.890686,164.454742 794.904663,157.292343 794.837158,150.130753 
	C794.811829,147.443161 794.904602,144.289398 790.994080,144.478897 
	C787.700500,144.638519 786.138367,146.620621 786.204224,150.163330 
	C786.368286,158.988037 786.121399,167.821045 786.326843,176.644028 
	C786.420227,180.654968 785.151978,182.692078 780.931824,182.230576 
	C780.438171,182.176605 779.933289,182.225983 779.433594,182.227280 
	C771.664246,182.247620 771.685547,182.247406 771.613708,174.612198 
	C771.535400,166.291580 771.352600,157.971436 771.343262,149.650955 
	C771.340271,146.973785 771.430481,144.192856 767.834900,144.402145 
	C764.930603,144.571213 762.266235,145.712784 762.286072,149.498917 
	C762.321045,156.160919 762.283569,162.823273 762.276550,169.981415 
z"/>
<path fill="#000000" opacity="1.000000" stroke="none" 
	d="
M526.028564,247.217148 
	C520.916748,247.577423 516.271729,247.896362 511.633057,248.289398 
	C508.626007,248.544189 506.860077,247.545273 506.751373,244.236374 
	C506.686157,242.252213 506.218109,240.284256 506.003510,238.301178 
	C505.794922,236.373550 506.526764,235.028702 508.594391,234.761230 
	C519.821106,233.309021 531.105713,232.268967 542.273438,234.735611 
	C551.023499,236.668274 555.074341,242.214966 555.193909,251.263107 
	C555.281860,257.921234 555.269043,264.581451 555.227417,271.240265 
	C555.207153,274.476624 555.991333,276.798584 559.884399,276.797821 
	C562.508179,276.797333 563.574219,278.094940 563.448425,280.949188 
	C563.043030,290.145142 562.194519,290.928711 553.062866,289.792297 
	C548.585144,289.235046 544.118713,288.896240 540.637451,285.433502 
	C538.871704,283.677185 537.244019,285.199799 535.713501,286.097992 
	C530.573547,289.114227 524.935913,290.481079 519.085327,290.959595 
	C509.229431,291.765717 501.893890,286.285126 500.204590,277.039093 
	C498.501038,267.715088 503.389709,260.360382 513.129639,257.590149 
	C520.073914,255.615082 527.333740,256.104828 534.370605,254.862320 
	C535.913757,254.589828 538.116394,255.057907 538.281067,252.720932 
	C538.444946,250.394684 537.349121,248.530792 534.926331,247.768005 
	C532.163696,246.898224 529.315125,247.280777 526.028564,247.217148 
M534.493469,274.076294 
	C538.143982,272.304474 539.677856,269.706757 537.714722,265.353058 
	C532.489563,266.127441 527.245789,266.689240 522.104858,267.749756 
	C519.166931,268.355865 516.865540,270.282867 517.548645,273.778259 
	C518.166077,276.937592 520.570679,277.706512 523.551270,277.705536 
	C527.376099,277.704285 530.564819,275.969269 534.493469,274.076294 
z"/>
<path fill="#000000" opacity="1.000000" stroke="none" 
	d="
M678.154358,155.709106 
	C678.109741,147.403549 678.153015,139.569824 678.028198,131.738770 
	C677.958618,127.375587 679.591492,125.606293 684.247864,125.647293 
	C696.258606,125.753014 696.221863,125.546494 696.434387,137.218628 
	C696.570923,144.712906 696.810242,152.205811 697.061951,159.697357 
	C697.252808,165.378113 699.837341,167.211685 705.104065,165.506989 
	C712.490784,163.116089 715.703552,158.668533 715.687195,150.891693 
	C715.672791,144.058914 715.782532,137.223694 715.627991,130.394302 
	C715.550781,126.981972 716.818176,125.613129 720.289185,125.673668 
	C736.330505,125.953491 733.960754,123.463089 734.122864,138.798477 
	C734.256714,151.462830 734.055054,164.131226 734.241516,176.794296 
	C734.301270,180.853760 732.977966,182.793060 728.793396,182.300949 
	C728.300354,182.242996 727.793701,182.278793 727.294556,182.298859 
	C722.033936,182.510468 716.431396,183.280243 716.765137,175.230469 
	C713.913391,175.712753 712.410889,177.399368 710.620056,178.533585 
	C706.338196,181.245499 701.876648,183.231491 696.691040,183.532394 
	C685.397949,184.187683 679.088318,178.536331 678.654175,167.164062 
	C678.514404,163.502594 678.333862,159.842667 678.154358,155.709106 
z"/>
<path fill="#000000" opacity="1.000000" stroke="none" 
	d="
M671.610229,288.871613 
	C661.013916,286.738281 657.770813,283.043915 656.737549,272.688354 
	C656.107727,266.376770 655.791199,260.061401 656.126648,253.735718 
	C656.277344,250.893951 655.197510,249.754684 652.414124,249.878891 
	C650.420837,249.967850 648.413940,249.752197 646.420776,249.842728 
	C641.657043,250.059128 639.582703,248.259064 639.802551,243.107788 
	C640.154602,234.857864 639.885071,234.814316 648.166138,234.802628 
	C656.709045,234.790573 656.640015,234.789810 656.730164,226.616760 
	C656.851868,215.581360 654.996155,216.061737 667.586609,215.887878 
	C672.579590,215.818909 674.274963,217.563065 674.209900,222.578293 
	C674.050659,234.849411 674.256042,234.850174 686.673950,234.777908 
	C688.339233,234.768219 690.004700,234.786377 691.670044,234.797058 
	C693.885498,234.811264 695.059204,235.911835 695.142944,238.142090 
	C695.155396,238.474915 695.163757,238.808090 695.185608,239.140350 
	C695.880737,249.710403 695.433228,250.176895 684.882629,249.873505 
	C674.187378,249.565964 674.187439,249.565964 674.214417,260.462372 
	C674.246460,273.387085 675.290222,274.425812 688.539490,274.716858 
	C698.485413,274.935333 698.370728,274.920166 697.033508,285.029358 
	C696.526550,288.861938 695.031982,290.652954 690.960022,290.271332 
	C684.666016,289.681549 678.343384,289.397064 671.610229,288.871613 
z"/>
<path fill="#000000" opacity="1.000000" stroke="none" 
	d="
M521.174438,141.606003 
	C519.593323,144.899048 516.826660,144.206100 514.443909,144.319778 
	C506.378906,144.704590 499.031128,146.752182 493.151672,152.700226 
	C490.772369,155.107285 489.142242,163.300171 490.586212,166.223694 
	C491.555908,168.187012 493.361908,167.736389 494.953552,167.791504 
	C505.869446,168.169479 506.356140,168.764603 505.207855,179.478851 
	C504.952148,181.864517 504.088226,183.214279 501.565399,183.214294 
	C489.072174,183.214310 476.578979,183.228424 464.085754,183.239090 
	C461.864166,183.240982 460.687775,182.206039 460.687927,179.915268 
	C460.688049,178.083298 460.792175,176.229965 460.559998,174.423416 
	C459.914886,169.403717 461.957733,167.235596 467.018188,167.870193 
	C470.740051,168.336914 472.012024,166.566162 471.854919,162.918304 
	C471.625732,157.597488 471.649506,152.254196 471.845764,146.930832 
	C471.969666,143.569946 470.898163,141.842453 467.344940,142.147003 
	C463.124695,142.508713 461.688019,140.238449 461.906250,136.367523 
	C462.009277,134.540039 461.955750,132.704285 462.012970,130.873520 
	C462.100342,128.078568 463.383820,126.634079 466.363556,126.678696 
	C472.359131,126.768463 478.358643,126.776756 484.353455,126.660858 
	C487.442719,126.601128 488.446167,128.061279 488.380066,130.925598 
	C488.323486,133.378632 488.405609,135.873062 489.871521,137.941254 
	C491.245239,138.142746 491.931305,137.262543 492.474640,136.516052 
	C498.205566,128.642349 506.373901,126.272392 515.583801,125.852898 
	C518.664062,125.712593 520.472168,126.515564 520.686035,129.686569 
	C520.943298,133.502686 521.068481,137.327728 521.174438,141.606003 
z"/>
<path fill="#000000" opacity="1.000000" stroke="none" 
	d="
M630.245117,245.955292 
	C630.958679,251.383057 628.008789,252.365601 623.949402,252.305130 
	C616.367859,252.192169 609.490662,254.113846 603.734863,259.352478 
	C600.813049,262.011780 598.980042,269.530792 600.493042,273.062988 
	C601.377869,275.128815 603.176758,274.777710 604.761108,274.753662 
	C615.240112,274.594543 614.308716,273.290985 614.307678,285.514862 
	C614.307434,288.239258 613.163696,289.419952 610.422852,289.408783 
	C598.602295,289.360626 586.781372,289.365753 574.960815,289.415100 
	C572.244141,289.426453 570.950745,288.233765 570.980286,285.537048 
	C570.998474,283.872711 571.077209,282.201324 570.961853,280.544739 
	C570.666931,276.310364 572.411926,274.209991 576.792847,274.798401 
	C581.415527,275.419281 583.053528,273.400269 582.776855,268.842163 
	C582.474792,263.865723 582.600220,258.853943 582.743591,253.863419 
	C582.827515,250.941299 581.910583,249.813934 578.775635,249.705383 
	C572.843323,249.499985 572.807739,248.799194 572.853271,239.969254 
	C572.878479,235.083481 575.468018,234.649948 579.249634,234.786575 
	C583.738525,234.948746 588.252991,235.019928 592.729736,234.725327 
	C597.145325,234.434753 598.826843,236.208313 598.447571,240.516006 
	C598.275146,242.474960 598.548401,244.480316 599.510864,246.343262 
	C601.199707,246.080643 602.151306,244.761780 602.999573,243.662628 
	C608.903809,236.012146 617.208740,234.429047 626.120422,234.153259 
	C628.289307,234.086121 629.100159,235.111664 629.293701,237.068329 
	C629.571838,239.881256 629.918030,242.687454 630.245117,245.955292 
z"/>
<path fill="#000000" opacity="1.000000" stroke="none" 
	d="
M664.177124,173.180542 
	C664.173584,175.143097 664.124451,176.641052 664.164673,178.136612 
	C664.241516,180.990921 663.061218,182.365936 660.033386,182.388199 
	C644.735962,182.500580 629.438293,182.665192 614.143311,182.952332 
	C609.979553,183.030502 608.679749,181.204636 608.723022,177.228073 
	C608.844849,166.033417 608.408508,167.775208 617.965332,167.671539 
	C627.665039,167.566315 626.888855,168.561783 626.930481,158.870819 
	C626.949768,154.380005 626.841492,149.887070 626.946045,145.398727 
	C627.015808,142.405182 625.739929,141.080368 622.770203,141.322250 
	C622.109497,141.376068 621.440247,141.323959 620.774902,141.321716 
	C611.094238,141.288925 609.068665,138.671249 611.157349,129.104172 
	C611.579651,127.169952 612.579956,126.105087 614.495789,126.086952 
	C623.641724,126.000320 632.788147,125.942039 641.934448,125.933899 
	C645.331604,125.930878 645.312927,128.416870 645.313049,130.847214 
	C645.313599,141.326096 645.470093,151.807724 645.266968,162.282471 
	C645.186523,166.429749 646.587891,168.141388 650.763367,167.597153 
	C653.230225,167.275604 655.741638,167.312592 658.223816,167.087250 
	C662.377686,166.710190 664.633118,168.255219 664.177124,173.180542 
z"/>
<path fill="#000000" opacity="1.000000" stroke="none" 
	d="
M472.578613,269.455383 
	C476.989960,276.467712 476.572449,283.641510 471.789124,287.892822 
	C466.986969,292.160858 455.640045,292.457520 450.734985,288.443237 
	C443.623199,282.622955 445.332489,270.289154 453.900513,267.039734 
	C460.266815,264.625305 466.591583,264.879303 472.578613,269.455383 
z"/>
<path fill="#000000" opacity="1.000000" stroke="none" 
	d="
M641.591553,114.061432 
	C637.625916,115.212570 634.046326,115.328346 630.434448,114.262505 
	C625.716675,112.870346 622.554565,108.529556 622.915466,103.834991 
	C623.315979,98.623306 627.668457,94.513657 633.586365,93.759369 
	C640.861938,92.832031 646.499329,95.641197 648.291931,101.087234 
	C650.062683,106.466988 648.053589,110.553108 641.591553,114.061432 
z"/>
</svg>